<?xml version="1.0" encoding="utf-8"?>
<!-- Generator: Adobe Illustrator 19.2.0, SVG Export Plug-In . SVG Version: 6.00 Build 0)  -->
<svg version="1.1" id="Layer_1" xmlns="http://www.w3.org/2000/svg" xmlns:xlink="http://www.w3.org/1999/xlink" x="0px" y="0px"
	 viewBox="0 0 1920 1080" style="enable-background:new 0 0 1920 1080;" xml:space="preserve">
<style type="text/css">
	.st0{fill:#4D4D4D;}
	.st1{fill:#405A7F;}
	.st2{fill:#754C24;}
	.st3{fill:#BF844F;}
	.st4{fill:#2F455B;}
	.st5{fill:#333333;}
	.st6{fill:#8C6239;}
	.st7{fill:#603813;}
	.st8{fill:none;stroke:#8C6239;stroke-width:4.5315;stroke-linecap:round;stroke-miterlimit:10;}
</style>
<g>
	<path class="st0" d="M895.8,656.7h-1.3c-41.6,0-75.4-34.2-75.4-75.8v-0.2h152v0.2C971.2,622.6,937.4,656.7,895.8,656.7z"/>
	<path class="st1" d="M926.1,382.7L926.1,382.7c-6.1,8.2-4.4,19.7,3.7,25.8l110,82.3c8.2,6.1,19.7,4.4,25.8-3.7l0,0
		c6.1-8.2,4.4-19.7-3.7-25.8l-110-82.3C943.8,372.8,932.2,374.5,926.1,382.7z"/>
	<path class="st2" d="M870.8,922.7l0,41l-80.8,0.4c0,0,3-18.4,22.9-21.9c19.8-3.6,36.6,7.8,36.6,7.8l2.1-27.3H870.8z"/>
	<rect x="840.2" y="580.7" class="st0" width="41" height="342"/>
	<path class="st2" d="M918.9,922.7l0,41l80.8,0.4c0,0-3-18.4-22.9-21.9c-19.8-3.6-36.6,7.8-36.6,7.8l-2.1-27.3H918.9z"/>
	<path class="st3" d="M1110.7,368.6L1110.7,368.6c-3.3-1.3-4.9-5-3.7-8.3l10.5-27.4c1.3-3.3,5-4.9,8.3-3.7v0c3.3,1.3,4.9,5,3.7,8.3
		l-10.5,27.4C1117.7,368.2,1114,369.8,1110.7,368.6z"/>
	
		<rect x="908.2" y="580.7" transform="matrix(-1 -1.224647e-16 1.224647e-16 -1 1857.3134 1503.4996)" class="st0" width="41" height="342"/>
	<path class="st1" d="M859.8,373.2h70.6c22.5,0,40.7,18.2,40.7,40.7v166.9h-152V413.9C819.2,391.4,837.4,373.2,859.8,373.2z"/>
	<path class="st1" d="M1101.6,358.2L1101.6,358.2c-9.4-4-20.2,0.4-24.2,9.8l-42.8,101.2c-4,9.4,0.4,20.2,9.8,24.2l0,0
		c9.4,4,20.2-0.4,24.2-9.8l42.8-101.2C1115.4,373,1111,362.2,1101.6,358.2z"/>
	<path class="st4" d="M971.2,413.9c4.5-2.6-69.8,43.2-84.9,27.6c-20.2-21-37.9-42.5-37.9-42.5c-18.5,3.9-29.2-4.7-29.2,14.9v16.6
		c7,24.6,31.2,77.9,38.4,87.5c11.7,15.6,28.4,14.5,56.6-5.7c14.6-10.4,41.1-29.2,57-40.5V413.9z"/>
	<path class="st1" d="M885.3,507.8L885.3,507.8c9.3-4.2,13.4-15.1,9.2-24.4l-38.3-84.8c-4.2-9.3-15.1-13.4-24.4-9.2l0,0
		c-9.3,4.2-13.4,15.1-9.2,24.4l38.3,84.8C865.1,507.9,876,512,885.3,507.8z"/>
	<path class="st1" d="M862.3,500.4L862.3,500.4c5.3,8.7,16.6,11.5,25.4,6.2l117.4-71.4c8.7-5.3,11.5-16.6,6.2-25.4v0
		c-5.3-8.7-16.6-11.5-25.4-6.2L868.5,475C859.8,480.3,857,491.7,862.3,500.4z"/>
	<g>
		<path class="st3" d="M982.8,405.6L982.8,405.6c3,1.8,7,0.9,8.8-2.2l15.2-25.1c1.8-3,0.9-7-2.2-8.8l0,0c-3-1.8-7-0.9-8.8,2.2
			l-15.2,25.1C978.9,399.8,979.8,403.7,982.8,405.6z"/>
		<path class="st3" d="M1010.9,437.6l8.8-5.4c3.8-2.3,5-7.3,2.7-11.1l-18.3-29.9c-2.3-3.8-7.3-5-11.1-2.7l-8.8,5.4
			c-4.1,2.5-5.3,7.8-2.8,11.8l17.8,29C1001.5,438.8,1006.8,440.1,1010.9,437.6z"/>
		<path class="st3" d="M986.7,399.8L986.7,399.8c1.8,3,5.8,4,8.8,2.1l50.7-30.9c3-1.8,4-5.8,2.1-8.8l0,0c-1.8-3-5.8-4-8.8-2.1
			L988.8,391C985.8,392.8,984.9,396.8,986.7,399.8z"/>
		<path class="st3" d="M998.3,407.7L998.3,407.7c1.8,3,5.8,4,8.8,2.1l25.1-15.4c3-1.8,4-5.8,2.1-8.8l0,0c-1.8-3-5.8-4-8.8-2.1
			l-25.1,15.4C997.4,400.7,996.5,404.7,998.3,407.7z"/>
		<path class="st3" d="M1002.3,420.3L1002.3,420.3c1.8,3,5.8,4,8.8,2.1l25.1-15.4c3-1.8,4-5.8,2.1-8.8v0c-1.8-3-5.8-4-8.8-2.1
			l-25.1,15.4C1001.4,413.3,1000.4,417.3,1002.3,420.3z"/>
		<path class="st3" d="M1004.9,433.7L1004.9,433.7c1.8,3,5.8,4,8.8,2.1l25.1-15.4c3-1.8,4-5.8,2.1-8.8l0,0c-1.8-3-5.8-4-8.8-2.1
			l-25.1,15.4C1004,426.7,1003.1,430.6,1004.9,433.7z"/>
	</g>
	<path class="st5" d="M1089,408.4l-49.4-2.4c-2.6-0.1-4.3-2.8-3.4-5.2l31.9-82.9c0.6-1.5,2.1-2.5,3.7-2.4l49.4,2.4
		c2.6,0.1,4.3,2.8,3.4,5.2l-31.9,82.9C1092.1,407.5,1090.6,408.5,1089,408.4z"/>
	
		<ellipse transform="matrix(0.3588 -0.9334 0.9334 0.3588 369.4938 1235.6248)" class="st0" cx="1084.1" cy="348.9" rx="10.6" ry="10.6"/>
	<g>
		<path class="st3" d="M1098,396l-9.7-3.7c-4.2-1.6-6.2-6.3-4.6-10.4l12.6-32.8c1.6-4.2,6.3-6.2,10.4-4.6l9.7,3.7
			c4.4,1.7,6.6,6.7,4.9,11.1l-12.2,31.8C1107.4,395.5,1102.5,397.7,1098,396z"/>
		<path class="st3" d="M1114.9,354.4L1114.9,354.4c-1.3,3.3-5,4.9-8.3,3.7l-18.4-7.5c-3.3-1.3-4.9-5-3.7-8.3v0
			c1.3-3.3,5-4.9,8.3-3.7l18.4,7.5C1114.5,347.4,1116.2,351.1,1114.9,354.4z"/>
		<path class="st3" d="M1104.9,364.3L1104.9,364.3c-1.3,3.3-5,4.9-8.3,3.7l-18.4-7.5c-3.3-1.3-4.9-5-3.7-8.3v0
			c1.3-3.3,5-4.9,8.3-3.7l18.4,7.5C1104.6,357.3,1106.2,361,1104.9,364.3z"/>
		<path class="st3" d="M1103.3,377.4L1103.3,377.4c-1.3,3.3-5,4.9-8.3,3.7l-18.4-7.5c-3.3-1.3-4.9-5-3.7-8.3v0
			c1.3-3.3,5-4.9,8.3-3.7l18.4,7.5C1103,370.4,1104.6,374.1,1103.3,377.4z"/>
		<path class="st3" d="M1103.2,391L1103.2,391c-1.3,3.3-5,4.9-8.3,3.7l-18.4-7.5c-3.3-1.3-4.9-5-3.7-8.3l0,0c1.3-3.3,5-4.9,8.3-3.7
			l18.4,7.5C1102.8,384,1104.4,387.7,1103.2,391z"/>
	</g>
	<path class="st3" d="M923.9,370.2c0,13.4-10.9,24.5-24.3,24.5h0h-0.2c-13.4,0-24.5-11.1-24.5-24.5v-21.5h49V370.2z"/>
	<path class="st6" d="M874.9,364.8c8.7,4.9,18,8.1,27.1,9.2c7,0.8,14.4,0.5,21.8-1c0.1-0.9,0.2-1.8,0.2-2.7v-21.5h-49V364.8z"/>
	<path class="st7" d="M1041.2,267.4c1.8-9.8-3-19.2-11.1-23.9c7-4.4,12.2-11.6,13.8-20.4c2.8-15.7-6.9-30.7-22-34.8
		c1.8-2.8,3.1-6.1,3.7-9.6c2.6-14.7-7.1-28.7-21.8-31.3c-7.2-1.3-14.3,0.4-19.9,4.3c0-0.1,0-0.1,0-0.2c2.4-13.6-6.6-26.6-20.2-29.1
		c-8.6-1.6-17.1,1.5-22.7,7.5c-4.2-6.9-11.2-12.1-19.8-13.7c-13.1-2.3-25.6,4.4-31.2,15.8c-3.8-3.3-8.5-5.6-13.8-6.6
		c-15.8-2.8-30.9,7.7-33.8,23.5c-0.4,2.1-0.5,4.3-0.4,6.4c-16.7-2.8-32.5,8.3-35.5,25c-2,11.2,2.3,22.1,10.4,28.9
		c-7.7,2.5-13.8,9-15.3,17.5c-1.7,9.3,2.6,18.3,10.1,23.1c-3,2.8-5.1,6.4-5.9,10.7c-1.8,9.9,4.4,19.5,13.9,22.1
		c-1.3,2.1-2.3,4.5-2.7,7.1c-1.9,10.8,5.3,21.1,16.1,23.1c7.5,1.3,14.7-1.7,19.1-7.3c13.1,13,30.1,22.3,49.6,25.8
		c19.8,3.6,39.3,0.6,56.2-7.3c1.9,7.7,8.1,13.9,16.4,15.3c11.2,2,22-5.5,24-16.7c0.4-2,0.4-4,0.2-5.9c0.6,0.2,1.2,0.3,1.8,0.4
		c12.7,2.3,24.9-6.2,27.2-18.9c0.8-4.6,0.2-9.2-1.5-13.2C1033.7,282.4,1039.7,275.9,1041.2,267.4z"/>
	<path class="st3" d="M899,362.8c-34.3-6.2-70.2-43.6-62.7-85.6L848,212c6.1-33.9,38.5-56.4,72.4-50.4l28.9,5.2
		c33.9,6.1,56.4,38.5,50.4,72.4l-11.7,65.1C980.4,346.4,933.3,368.9,899,362.8z"/>
	
		<rect x="827.3" y="206.6" transform="matrix(0.9843 0.1765 -0.1765 0.9843 53.1842 -145.7015)" class="st7" width="36.3" height="39"/>
	
		<ellipse transform="matrix(0.1765 -0.9843 0.9843 0.1765 454.1882 1028.8728)" class="st3" cx="842" cy="243" rx="21.9" ry="21.9"/>
	<path class="st6" d="M837.1,245.2c0.8-4.2,4.8-7,9-6.3c1.2,0.2,2.2,0.7,3.1,1.3c-0.9-2.5-3.1-4.4-5.9-4.9c-4.2-0.8-8.3,2.1-9,6.3
		c-0.5,3.1,0.8,6,3.2,7.7C837,248.1,836.9,246.7,837.1,245.2z"/>
	<ellipse transform="matrix(0.1765 -0.9843 0.9843 0.1765 484.5779 1088.8542)" class="st5" cx="893" cy="254.8" rx="8.8" ry="5"/>
	<ellipse transform="matrix(0.1765 -0.9843 0.9843 0.1765 525.0076 1159.597)" class="st5" cx="955.5" cy="266" rx="8.8" ry="5"/>
	<path class="st6" d="M917.9,268.5l-2.8,15.6c-0.1,0.7,0.6,1.4,1.4,1.5l9.2,1.7c2.5,0.5,4.4-2.2,3.2-4.4l-8.4-14.7
		C919.9,267.1,918.2,267.3,917.9,268.5z"/>
	
		<ellipse transform="matrix(0.1765 -0.9843 0.9843 0.1765 553.6324 1202.8778)" class="st3" cx="995.7" cy="270.6" rx="21.9" ry="21.9"/>
	<path class="st6" d="M1002.3,274.9c0.8-4.2-2.1-8.3-6.3-9c-1.2-0.2-2.3-0.1-3.4,0.2c1.7-2,4.4-3.1,7.2-2.6c4.2,0.8,7,4.8,6.3,9
		c-0.5,3.1-2.8,5.4-5.6,6.1C1001.4,277.5,1002,276.3,1002.3,274.9z"/>
	<path class="st8" d="M893.1,290.5c-2.4,13.4,6.5,26.3,19.9,28.7h0c13.4,2.4,26.3-6.5,28.7-19.9"/>
	<path class="st7" d="M1008.4,213.4l1.5-8.3c3-16.5-8-32.4-24.6-35.3l-95.6-17.1c-16.5-3-32.4,8-35.3,24.6l-4.1,22.9
		c-1.5,2.6-2,5.4-1.5,8.2l2.2,7c4.3,6.8,13.7,9.8,22.6,6.6c8.4-3,13.7-10.7,13.3-18.3l2.1-0.7c2.5,2,5.5,3.4,8.8,4
		c8.6,1.5,16.9-2.8,20.8-10.2c1.5,9.4,9.5,17.5,20.3,19.4c8,1.4,15.8-0.8,21.1-5.5c0.4,6.6,3.7,13.4,9.4,18.7
		c10.6,9.7,26,10.5,34.2,1.6C1007.9,226.4,1009.3,219.9,1008.4,213.4z"/>
</g>
</svg>
